<svg width="900" height="666" viewBox="0 0 900 666" fill="none" xmlns="http://www.w3.org/2000/svg">
<path d="M109.544 661.509V576.533C109.544 542.943 96.5667 527.693 70.5899 527.693C44.6132 527.693 29.3635 546.329 29.3635 576.806V661.486H0.000488281V437.854H0.29593C16.341 437.854 29.3635 450.877 29.3635 466.922V521.739H29.9317C39.2497 507.898 54.2039 500.853 73.6808 500.853C110.953 500.853 138.884 524.557 138.884 567.465V661.463H109.521L109.544 661.509Z" fill="white"/>
<path d="M247.47 665.464C201.948 665.01 164.131 627.306 165.176 581.784C166.267 535.149 203.402 500.877 250.697 500.877C293.901 500.877 334.536 534.762 333.968 584.443C333.4 626.488 297.946 665.964 247.47 665.464ZM249.288 527.694C219.925 527.694 194.516 552.535 194.516 583.034C194.516 613.534 219.084 638.647 248.72 638.647C278.355 638.647 304.605 614.374 304.605 582.739C304.605 551.103 280.037 527.694 249.265 527.694H249.288Z" fill="white"/>
<path d="M363.629 638.077V531.943H351.448V505.126H363.629V452.627H392.992V505.126H418.674V531.943H392.992V665.327H390.879C375.834 665.327 363.629 653.122 363.629 638.077Z" fill="white"/>
<path d="M504.786 546.625C503.377 535.33 496.877 527.716 484.741 527.716C473.446 527.716 466.4 535.329 466.4 544.375C466.4 557.647 479.945 561.602 495.468 566.397C517.49 573.17 537.808 586.442 537.808 615.51C537.808 644.577 515.786 665.486 485.309 665.486C457.082 665.486 429.969 646.282 429.969 610.146H459.332C460.741 629.055 470.332 638.668 485.877 638.668C499.422 638.668 508.468 629.918 508.468 617.214C508.468 606.487 500.286 599.442 481.923 593.51C443.537 581.374 437.037 564.715 437.037 546.92C437.037 519.262 460.469 500.898 486.15 500.898C511.831 500.898 533.285 518.966 534.149 546.625H504.786Z" fill="white"/>
<path d="M568.875 638.077V531.943H556.694V505.126H568.875V452.627H598.238V505.126H623.92V531.943H598.238V665.327H596.125C581.08 665.327 568.875 653.122 568.875 638.077Z" fill="white"/>
<path d="M768.735 661.509V637.236H768.166C757.167 655.872 737.394 665.463 715.099 665.463C669.373 665.463 632.101 631.032 632.101 585.851C632.101 535.875 667.964 500.876 713.963 500.876C736.826 500.876 756.03 509.353 768.166 527.125H768.735V505.103H798.098V661.509H768.735ZM769.303 583.601C769.303 553.125 747.28 527.716 714.827 527.716C684.486 527.716 659.873 554.534 661.555 586.692C663.055 615.669 686.85 639.191 715.872 638.645C745.871 638.077 769.325 612.919 769.325 583.601H769.303Z" fill="white"/>
<path d="M832.252 661.51V505.104H859.638V519.217H860.206C867.274 508.763 879.41 501.99 900.001 500.877V531.081C874.592 531.922 861.615 547.444 861.615 573.716V636.079C861.615 650.124 850.229 661.51 836.184 661.51H832.252Z" fill="white"/>
<path d="M166.088 183.723C140.134 176.382 98.6124 166.61 53.1588 178.723C44.7272 180.973 38.9773 184.7 34.9547 191.768C32.9547 195.291 31.1138 199.109 32.1138 203.018C32.9774 206.336 37.7046 207.495 41.5 208.086C45.159 208.654 53.4316 209.086 55.6588 206.427C56.8179 205.041 56.8406 201.132 50.7952 199.859C48.568 199.382 42.4772 199.177 42 198.155C42 198.155 42.2045 197.45 45.5454 196.405C47.0226 195.95 57.8633 191.496 87.4536 192.45C122.635 193.587 153.384 201.814 185.883 214.632C217.678 227.154 253.427 249.813 274.404 276.767C282.336 286.971 292.177 303.721 293.472 317.857C296.608 352.129 263.132 381.06 195.156 378.742C183.542 378.355 169.429 375.583 169.429 375.583L168.02 309.402C168.02 309.402 196.792 309.175 228.587 319.652C231.291 320.538 234.019 322.311 234.269 324.947C234.451 326.97 232.86 328.697 231.064 330.266C227.769 333.152 223.246 334.402 222.246 335.606C221.519 336.493 221.519 337.834 222.451 338.584C224.837 340.424 230.701 341.697 234.678 341.333C242.7 340.629 248.041 335.993 252.064 329.925C256.359 323.448 258.814 306.993 235.95 296.494C206.428 282.926 167.838 285.471 167.838 285.471C167.838 285.471 167.634 276.494 167.247 270.517C166.588 260.722 163.861 241.449 154.952 235.904C153.316 234.904 151.316 234.79 150.18 236.313C148.452 238.586 146.748 247.199 146.361 249.426C142.998 269.471 143.18 287.426 142.998 287.676C142.907 287.789 142.793 287.88 142.657 287.994C142.316 288.221 120.976 290.766 100.362 299.675C92.1353 303.243 80.3855 309.652 76.8174 317.925C72.2266 328.607 80.3174 340.288 93.9534 353.22C105.521 364.174 122.566 375.696 135.203 381.674C138.43 383.196 142.202 385.06 142.202 385.06C142.202 385.06 143.021 392.696 143.68 397.128C146.066 413.059 158.202 410.741 161.543 410.059C166.975 408.946 168.02 405.332 168.77 401.128C169.179 398.832 168.997 395.537 168.997 395.537C168.997 395.537 177.224 397.423 182.747 398.446C198.815 401.423 216.246 401.923 231.36 399.855C291.836 391.582 307.063 363.106 311.881 355.492C320.244 342.265 338.016 305.402 284.518 250.722C272.291 238.222 236.973 203.814 166.066 183.723H166.088ZM86.2263 332.811C84.0218 330.538 82.34 328.084 82.8627 325.129C83.3627 322.266 88.9535 319.743 91.7944 318.902C119.067 310.857 142.202 310.448 142.202 310.448C142.202 310.448 141.998 320.243 141.93 330.129C141.839 348.879 142.339 367.901 142.339 367.901C142.339 367.901 111.567 358.947 86.2491 332.788L86.2263 332.811Z" fill="white"/>
<path d="M363.288 263.926C376.083 258.926 385.947 251.722 395.947 241.495C401.787 235.563 406.901 225.79 405.037 216.882C404.106 212.45 402.083 209.404 398.378 206.223C396.537 204.632 392.333 202.405 388.901 201.723C387.901 201.518 386.856 201.45 386.424 201.177C385.947 200.859 385.538 200.223 385.083 199.632C382.833 196.791 378.402 194.064 375.197 192.973C365.379 189.587 352.288 192.132 343.38 195.905C333.925 199.905 325.221 205.768 318.607 212.859C301.244 231.472 308.858 246.222 310.403 248.972C311.721 251.29 314.153 253.813 314.698 256.244C315.016 257.699 314.721 259.585 314.789 261.29C314.903 265.199 316.607 269.244 319.562 271.858C321.675 273.721 324.698 274.267 327.743 269.653C328.766 268.108 330.471 264.949 330.471 264.949C330.471 264.949 334.016 266.994 342.584 267.608C348.97 268.062 357.697 266.131 363.311 263.949L363.288 263.926ZM322.312 241.426C322.312 241.426 321.721 240.176 321.335 239.245C318.698 232.699 324.516 225.313 329.812 220.813C340.13 212.018 348.925 212.223 348.925 212.223C348.925 212.223 346.811 213.904 345.084 215.427C330.016 228.609 322.312 241.426 322.312 241.426ZM344.925 241.199C351.243 233.063 362.925 222.95 371.083 218.086C377.47 214.268 382.992 213.223 387.106 215.041C389.56 216.109 391.515 218.336 391.833 221.291C392.924 230.472 382.333 238.154 375.242 242.267C359.152 251.654 340.107 249.54 339.607 248.676C339.539 248.449 343.47 243.086 344.925 241.176V241.199Z" fill="white"/>
<path d="M728.23 291.086C707.731 276.859 674.663 321.949 660.118 344.312C657.959 332.926 665.664 318.494 665.664 318.494C665.664 318.494 678.004 297.109 679.754 292.768C681.436 288.404 682.413 279.427 680.3 278.518C678.368 277.632 675.05 280.495 675.05 280.495C647.323 305.381 643.437 332.994 643.437 332.994C640.823 347.857 643.891 358.312 648.368 365.607C632.96 398.447 625.414 427.083 627.414 444.037C629.278 456.923 638.528 466.241 644.119 468.219C649.778 470.582 650.778 463.764 650.778 463.764C655.368 428.742 663.391 405.311 672.913 382.175C701.822 388.811 723.571 360.675 731.276 347.221C735.799 339.153 738.253 328.381 738.253 318.244C738.253 306.699 735.071 295.972 728.185 291.063L728.23 291.086ZM709.413 346.926C706.095 350.062 695.118 356.244 683.731 357.539C694.595 336.494 708.072 321.017 715.549 312.745C724.253 302.949 725.39 311.835 725.39 311.835C727.412 329.108 714.844 342.108 709.435 346.903L709.413 346.926Z" fill="white"/>
<path d="M633.28 363.584C634.666 358.312 629.871 352.562 625.53 351.471C621.484 350.63 590.462 356.448 586.758 357.448C582.758 358.516 584.553 354.766 584.553 354.766L589.349 338.54C589.349 338.54 618.962 337.403 623.257 336.676C627.234 335.971 627.484 333.153 627.484 333.153C627.484 333.153 628.007 328.517 627.848 324.176C627.416 319.54 623.689 319.972 623.689 319.972C612.235 318.767 596.508 320.131 596.508 320.131L600.485 307.677C600.485 307.677 631.984 306.154 643.961 303.381C650.12 301.927 646.484 295.881 646.484 295.881C639.007 280.95 630.416 281.791 630.416 281.791C605.644 280.95 569.645 287.518 565.736 289.472C562.054 291.131 562.463 293.904 567.258 299.949C572.394 306.313 581.053 305.722 581.053 305.722L573.463 321.426C567.258 321.858 565.145 323.79 565.145 323.79C561.577 327.608 566.508 338.858 566.508 338.858C566.508 338.858 555.758 362.971 563.554 375.721C571.94 389.107 581.826 388.448 581.826 388.448C600.689 389.811 631.643 370.084 633.302 363.562L633.28 363.584Z" fill="white"/>
<path d="M525.036 267.744C525.036 267.744 520.649 265.699 519.536 270.062C518.422 274.403 520.081 279.017 520.081 279.017C530.99 316.061 533.49 337.947 533.49 337.947C533.49 337.947 533.99 344.379 532.74 344.743C531.876 345.402 530.899 344.493 530.899 344.493C529.649 344.538 517.672 324.448 517.672 324.448L515.354 320.516C502.172 299.266 494.195 292.016 494.195 292.016C492.332 290.266 487.536 285.448 481.559 292.085C475.582 298.766 470.9 320.198 469.014 340.334C467.423 360.447 468.628 371.878 471.559 376.719C474.787 381.605 481.014 383.264 486.15 379.083C491.582 374.901 490.559 348.379 491.423 334.788C492.241 321.129 493.582 323.561 493.582 323.561C494.786 323.243 500.991 335.743 500.991 335.743C500.991 335.743 517.377 369.265 527.649 374.242C538.058 379.196 546.444 371.219 549.626 363.765C552.853 356.242 558.33 331.379 550.171 303.812C541.967 276.267 525.036 267.744 525.036 267.744Z" fill="white"/>
<path d="M354.875 338.698C354.443 329.516 353.353 306.107 350.807 295.539C349.694 290.994 347.853 286.835 343.375 285.131C342.853 284.926 342.262 284.767 341.876 284.699C339.08 284.153 337.467 288.017 336.717 289.949C334.512 295.63 332.898 309.221 332.467 313.448C331.148 326.289 330.08 356.674 332.308 372.174C333.239 378.674 335.376 382.878 341.944 384.242C344.603 384.788 349.444 384.697 351.58 383.333C353.443 382.174 354.739 379.924 355.171 377.992C356.375 372.606 355.898 364.947 355.671 359.174C355.375 352.379 355.216 345.607 354.898 338.743L354.875 338.698Z" fill="white"/>
<path d="M460.783 287.471C446.625 279.949 423.33 279.926 408.921 281.721C394.035 283.562 374.103 288.199 365.581 300.448C362.331 305.107 360.422 312.289 361.922 318.13C362.763 321.38 365.104 323.834 368.49 325.607C374.513 328.743 394.648 329.425 403.626 330.38C412.08 331.289 427.648 332.789 436.216 336.379C436.216 336.379 444.352 339.22 444.284 343.857C444.284 346.152 442.557 347.97 440.807 349.22C428.08 358.243 410.58 360.811 395.012 360.561C389.74 360.493 385.399 359.652 380.035 357.356C377.762 356.356 374.785 354.538 375.194 351.425C375.831 346.447 381.535 345.197 386.058 345.629C388.58 345.857 391.876 346.947 394.353 347.902C404.33 351.834 408.898 355.152 417.671 353.834C420.943 353.334 432.307 350.879 433.829 346.197C434.216 345.061 433.67 343.834 432.83 342.97C431.625 341.743 424.807 339.084 422.943 338.425C416.262 336.039 403.557 333.879 396.535 333.607C387.285 333.289 374.581 335.175 369.308 342.834C364.558 349.743 363.49 363.674 387.08 375.401C398.035 380.856 411.33 383.265 423.58 381.924C430.58 381.128 450.738 377.969 458.374 361.947C462.465 353.311 462.079 341.788 457.67 333.607C454.761 328.22 451.215 321.016 424.898 317.721C420.693 317.198 389.739 313.607 386.899 313.153C385.33 312.903 378.081 312.039 380.626 309.289C381.331 308.494 383.535 307.903 384.808 307.539C401.057 303.107 421.693 303.607 438.761 302.653C442.579 302.426 451.238 301.903 455.443 300.562C459.443 299.312 462.738 296.494 463.647 292.108C464.102 289.767 462.988 288.676 460.806 287.517L460.783 287.471Z" fill="white"/>
<path d="M883.023 307.494H834.388C833.842 290.676 832.161 274.085 829.297 257.767C828.797 254.972 826.365 252.927 823.547 252.927H810.434C807.866 252.927 805.934 255.267 806.411 257.79C809.479 274.085 811.297 290.676 811.866 307.516H762.458C760.208 307.516 758.367 309.357 758.367 311.63V326.539C758.367 328.811 760.208 330.652 762.458 330.652H811.866C811.297 347.493 809.479 364.083 806.411 380.378C805.934 382.901 807.866 385.242 810.434 385.242H823.547C826.388 385.242 828.82 383.197 829.297 380.401C832.138 364.083 833.842 347.47 834.388 330.675H883.023C885.273 330.675 887.114 328.834 887.114 326.561V311.653C887.114 309.38 885.273 307.539 883.023 307.539V307.494Z" fill="white"/>
<path d="M213.311 127.02C215.242 128.361 217.947 127.361 219.879 125.293C236.56 107.316 254.81 91.6798 275.605 77.4755C411.988 -15.6816 612.211 -2.13643 729.368 115.907C767.844 154.474 789.026 195.905 800.139 228.45C800.957 230.836 803.162 232.427 805.685 232.427H819.139C821.934 232.427 823.911 229.677 823.025 227.018C808.457 183.837 780.208 136.452 739.209 97.9296C616.234 -17.9088 417.056 -30.7722 278.241 63.9303C255.537 79.2709 232.969 98.9069 213.151 121.361C211.197 123.565 211.856 125.975 213.356 127.02H213.311Z" fill="white"/>
</svg>
